<?xml version="1.0" standalone="no"?>
<!DOCTYPE svg PUBLIC "-//W3C//DTD SVG 20010904//EN"
 "http://www.w3.org/TR/2001/REC-SVG-20010904/DTD/svg10.dtd">
<svg version="1.0" xmlns="http://www.w3.org/2000/svg"
 width="1080.000000pt" height="1080.000000pt" viewBox="0 0 1080.000000 1080.000000"
 preserveAspectRatio="xMidYMid meet">

<g transform="translate(0.000000,1080.000000) scale(0.100000,-0.100000)"
fill="#000000" stroke="none">
<path d="M5170 8557 c0 -101 3 -259 7 -350 l6 -167 69 0 68 0 0 183 c0 101 -3
259 -7 350 l-6 167 -69 0 -68 0 0 -183z"/>
<path d="M4760 8507 c-74 -17 -134 -58 -170 -115 -27 -42 -30 -55 -30 -130 0
-96 13 -131 68 -187 54 -54 87 -68 177 -73 69 -4 89 -1 144 22 68 27 111 60
111 83 0 17 -50 62 -68 63 -8 0 -25 -9 -38 -19 -61 -48 -179 -47 -224 1 -31
34 -25 46 28 54 26 3 54 10 63 15 9 4 62 13 118 18 148 16 156 23 125 114 -40
118 -170 184 -304 154z m144 -126 c32 -30 39 -59 18 -70 -10 -4 -53 -11 -97
-15 -44 -3 -92 -9 -107 -12 -25 -6 -28 -3 -28 19 0 28 42 84 74 98 36 15 114
4 140 -20z"/>
<path d="M5580 8506 c-49 -16 -136 -104 -144 -146 -4 -19 -12 -47 -18 -62 -14
-36 12 -136 47 -182 51 -67 152 -116 240 -116 24 0 68 9 97 21 99 38 156 116
165 226 5 54 2 70 -21 117 -51 103 -147 158 -273 155 -32 -1 -74 -7 -93 -13z
m157 -104 c94 -29 119 -174 41 -249 -25 -24 -37 -28 -88 -28 -54 0 -63 3 -92
33 -30 30 -33 37 -33 96 0 74 20 110 76 138 35 19 58 21 96 10z"/>
<path d="M4383 8422 c-23 -10 -48 -23 -55 -30 -9 -9 -14 -62 -16 -180 -2 -92
-7 -171 -11 -175 -11 -11 -39 2 -46 21 -3 10 -52 66 -109 126 l-102 108 -63
-22 c-39 -15 -61 -28 -59 -36 4 -16 322 -349 353 -370 19 -12 27 -12 67 2 71
24 75 32 82 182 3 72 9 191 12 262 4 73 3 130 -2 129 -5 0 -28 -8 -51 -17z"/>
<path d="M6139 8403 c-18 -45 -44 -112 -79 -203 -18 -47 -40 -105 -50 -130
-63 -164 -100 -264 -100 -275 0 -7 26 -22 59 -34 70 -25 71 -25 71 -3 0 9 7
26 15 36 8 11 15 25 15 32 0 6 11 37 26 69 l25 58 17 -24 c81 -117 266 -132
369 -30 92 92 107 263 32 354 -55 67 -170 109 -243 89 -35 -10 -35 -10 -29 18
5 28 3 30 -41 41 -25 6 -49 15 -52 20 -10 17 -24 9 -35 -18z m248 -184 c68
-42 84 -128 35 -195 -41 -57 -58 -67 -105 -67 -109 0 -166 91 -122 196 34 81
119 111 192 66z"/>
<path d="M3689 8105 c-88 -32 -147 -84 -178 -158 -51 -118 -4 -258 107 -324
41 -23 58 -27 129 -27 63 -1 85 3 100 17 11 9 26 17 34 17 25 0 124 96 144
139 22 50 16 59 -45 66 -44 6 -46 5 -69 -33 -25 -42 -75 -75 -127 -86 -34 -8
-104 15 -104 33 0 5 26 26 58 46 31 20 95 61 142 91 47 30 88 54 93 54 4 0 7
14 7 30 0 23 -11 42 -43 74 -68 68 -165 92 -248 61z m127 -126 l23 -22 -37
-26 c-80 -57 -164 -103 -177 -97 -34 12 -12 92 37 137 42 38 118 42 154 8z"/>
<path d="M6746 8069 c-138 -52 -204 -212 -142 -343 49 -102 173 -185 278 -186
45 0 51 8 43 64 l-7 44 -50 7 c-54 8 -124 53 -145 95 -15 30 -17 86 -3 95 6 3
75 -37 155 -89 79 -53 151 -96 159 -96 34 0 76 92 76 166 0 113 -80 211 -206
249 -62 19 -97 18 -158 -6z m181 -119 c52 -31 80 -108 54 -149 -7 -12 -14 -11
-38 5 -15 10 -36 24 -45 29 -46 28 -128 87 -128 92 0 4 7 15 17 25 22 25 98
24 140 -2z"/>
<path d="M3085 7801 c-22 -9 -56 -26 -75 -38 -39 -24 -280 -265 -280 -279 0
-9 445 -446 459 -452 4 -1 65 57 137 130 161 165 187 212 187 332 0 66 -4 91
-25 136 -29 62 -98 132 -155 156 -21 9 -46 20 -55 25 -28 14 -150 8 -193 -10z
m172 -142 c24 -11 60 -41 80 -66 31 -38 38 -54 41 -104 3 -46 0 -67 -18 -101
-25 -49 -129 -163 -148 -163 -16 0 -265 231 -283 263 -12 21 -9 27 51 87 36
36 83 74 105 85 52 26 117 25 172 -1z"/>
<path d="M7184 7663 c-191 -204 -214 -230 -214 -239 0 -6 20 -30 46 -54 l45
-45 102 105 c115 119 150 140 198 119 18 -7 44 -23 59 -35 l27 -23 43 44 43
44 -24 21 c-25 23 -91 50 -121 50 -14 0 -15 4 -5 30 6 16 9 31 6 32 -2 2 -22
20 -45 41 l-40 37 -120 -127z"/>
<path d="M7430 7054 c-46 -18 -56 -105 -17 -142 74 -70 191 36 129 116 -18 24
-81 38 -112 26z"/>
<path d="M2569 6933 c-5 -16 -12 -34 -14 -41 -8 -23 -32 -24 -74 -3 -22 12
-46 21 -53 21 -12 0 -58 -86 -58 -109 0 -6 22 -23 49 -39 l49 -28 -14 -33 c-8
-19 -13 -35 -12 -36 2 -1 21 -12 42 -24 l40 -23 18 24 c9 13 18 26 18 31 0 14
22 6 133 -48 148 -73 197 -74 266 -3 30 32 71 114 71 145 0 16 -26 29 -73 38
-33 7 -37 5 -37 -15 0 -43 -29 -80 -64 -80 -27 0 -207 91 -214 108 -3 8 2 27
12 42 24 42 21 75 -9 88 -42 19 -65 15 -76 -15z"/>
<path d="M8169 6800 c-24 -10 -84 -32 -134 -50 -199 -69 -229 -84 -277 -131
-46 -46 -78 -118 -78 -177 0 -36 29 -141 50 -181 22 -44 83 -102 130 -127 52
-27 157 -22 245 10 39 15 126 45 194 69 68 23 126 47 128 54 3 6 -5 39 -17 72
l-22 60 -112 -40 c-302 -107 -318 -111 -379 -85 -44 19 -63 43 -76 102 -10 42
-10 57 2 86 13 32 72 88 91 88 5 0 22 6 39 14 39 16 116 45 219 81 114 40 114
40 88 107 -11 31 -27 58 -34 61 -7 3 -32 -3 -57 -13z"/>
<path d="M2444 6555 c-38 -17 -103 -90 -110 -125 -3 -14 -10 -38 -16 -53 -40
-106 20 -254 126 -309 55 -29 175 -31 226 -4 43 23 100 75 100 93 0 7 4 13 9
13 17 0 51 110 51 165 0 68 -34 145 -64 145 -11 0 -35 -16 -53 -36 -31 -35
-31 -38 -18 -65 44 -84 -20 -199 -112 -199 -44 0 -114 34 -137 65 -42 61 -14
165 55 201 27 14 29 18 23 52 -13 74 -24 81 -80 57z"/>
<path d="M8405 6030 c-22 -5 -71 -13 -110 -19 -109 -17 -255 -41 -310 -53 -27
-5 -72 -13 -100 -16 l-50 -7 2 -59 c1 -35 7 -63 15 -68 16 -11 132 -1 213 17
33 7 87 16 120 20 33 3 74 10 90 15 17 5 73 14 125 20 52 6 96 13 98 15 7 7
-33 138 -43 140 -5 1 -28 -1 -50 -5z"/>
<path d="M2324 5960 c-115 -36 -168 -202 -123 -382 8 -31 14 -38 35 -38 40 0
87 28 79 48 -30 73 -30 150 0 196 17 26 68 52 83 42 6 -4 8 -53 5 -124 -4
-103 -2 -121 15 -152 25 -45 74 -73 126 -73 51 0 90 24 124 77 22 35 26 53 27
116 0 63 -4 80 -23 108 l-23 32 25 0 c31 0 32 2 41 73 l7 57 -63 0 c-35 0 -79
4 -98 10 -51 14 -202 21 -237 10z m258 -177 c18 -20 23 -35 22 -80 0 -46 -4
-58 -25 -74 -32 -25 -45 -24 -75 7 -25 24 -26 29 -19 97 4 40 9 75 11 78 8 13
64 -5 86 -28z"/>
<path d="M7764 5723 c3 -21 6 -47 6 -59 0 -22 -4 -20 235 -93 55 -16 114 -33
130 -37 17 -4 35 -10 40 -14 6 -4 26 -11 45 -15 19 -3 53 -12 75 -20 51 -16
120 -37 215 -65 41 -13 92 -29 113 -36 20 -8 40 -14 42 -14 7 0 6 80 -1 105
-4 16 -24 27 -82 44 -42 13 -117 36 -167 52 -49 16 -100 29 -112 29 -12 0 -24
4 -28 9 -3 5 -20 13 -38 16 -17 4 -50 13 -72 20 -22 7 -74 22 -115 35 -41 12
-116 35 -166 51 -122 39 -128 39 -120 -8z"/>
<path d="M2395 5421 c-94 -24 -175 -95 -196 -173 -14 -54 -6 -166 16 -208 24
-47 88 -108 131 -126 100 -42 244 -6 304 77 44 61 53 100 47 203 -5 96 -24
152 -66 191 -22 19 -22 19 -58 -17 l-36 -37 31 -59 c18 -33 32 -73 32 -90 0
-39 -44 -116 -74 -130 -24 -11 -25 -10 -30 31 -3 23 -10 83 -17 132 -6 50 -14
117 -18 150 -6 65 -12 69 -66 56z m-1 -158 c2 -10 7 -54 11 -98 3 -44 8 -92
11 -107 5 -24 2 -28 -19 -28 -14 0 -39 14 -60 35 -58 56 -61 127 -7 185 31 34
56 39 64 13z"/>
<path d="M8043 5309 c-91 -17 -166 -84 -199 -176 -22 -62 -18 -208 7 -259 22
-46 90 -114 113 -114 8 0 27 -6 43 -14 41 -21 266 -59 407 -69 32 -2 37 8 49
95 5 33 3 38 -16 42 -66 13 -300 46 -325 46 -39 0 -112 33 -141 63 -46 50 -36
164 19 211 46 38 87 41 244 18 77 -12 157 -23 176 -26 19 -3 47 -8 61 -11 31
-8 35 -1 44 82 l7 59 -83 12 c-46 6 -142 20 -214 31 -145 22 -134 22 -192 10z"/>
<path d="M2673 4847 c-24 -28 -57 -72 -74 -96 l-31 -43 -21 20 c-42 38 -90 56
-150 56 -32 -1 -63 -6 -69 -12 -7 -7 -19 -12 -28 -12 -23 0 -86 -63 -110 -110
-28 -55 -26 -138 6 -230 14 -41 30 -93 35 -115 6 -21 14 -44 18 -50 4 -5 13
-29 20 -52 13 -46 22 -50 61 -28 14 8 34 14 45 15 11 0 33 7 49 15 15 8 35 15
43 15 8 0 29 6 46 14 18 8 48 19 67 25 35 9 73 22 140 47 19 7 68 23 108 35
39 12 72 28 72 34 0 6 -9 38 -20 72 l-21 60 -82 -29 c-84 -29 -107 -30 -107
-4 0 9 -7 36 -16 62 -15 45 -15 46 12 87 15 23 45 64 66 90 30 39 37 54 31 75
-6 26 -42 112 -46 112 -1 0 -21 -24 -44 -53z m-220 -218 c34 -9 42 -17 64 -67
13 -31 29 -66 34 -77 5 -11 11 -33 12 -48 2 -27 -2 -30 -76 -57 -94 -35 -136
-41 -148 -20 -21 38 -50 162 -44 187 11 50 50 81 115 92 3 1 22 -4 43 -10z"/>
<path d="M7756 4663 l-27 -66 34 -51 c89 -134 117 -180 113 -183 -4 -4 -94
-25 -204 -47 -34 -7 -64 -15 -65 -17 -2 -2 -16 -33 -31 -67 -36 -83 -29 -90
66 -64 74 21 133 34 245 56 l62 13 29 -46 c58 -93 108 -173 133 -219 14 -25
30 -47 36 -49 15 -5 53 82 53 121 0 19 -14 52 -36 86 -54 81 -87 140 -82 145
4 4 96 26 198 46 51 11 51 10 74 69 10 25 22 53 27 62 5 10 9 20 9 23 0 13
-77 -1 -200 -36 -55 -16 -174 -37 -182 -32 -4 2 -26 34 -48 71 -22 37 -46 76
-53 87 -6 11 -32 53 -56 93 -25 39 -50 72 -56 72 -6 0 -24 -30 -39 -67z"/>
<path d="M3066 3929 c-35 -28 -37 -95 -3 -127 33 -31 90 -30 122 3 76 75 -35
190 -119 124z"/>
<path d="M7347 3869 c-57 -59 -164 -179 -194 -219 -63 -83 -81 -213 -42 -312
25 -64 95 -139 164 -175 42 -23 63 -27 135 -27 96 0 145 17 217 75 59 49 243
254 243 272 0 8 -15 27 -32 42 -18 15 -67 59 -108 99 -86 82 -287 265 -313
285 -15 12 -23 8 -70 -40z m138 -221 c50 -46 116 -105 148 -132 31 -27 57 -54
57 -60 0 -18 -153 -164 -184 -176 -15 -5 -49 -10 -76 -10 -59 0 -128 43 -176
110 -40 56 -43 105 -10 175 21 45 128 175 145 175 3 0 47 -37 96 -82z"/>
<path d="M3443 3414 c-48 -53 -100 -102 -115 -110 -40 -21 -81 -17 -122 11
-20 14 -40 25 -44 25 -5 0 -25 -18 -47 -40 -37 -38 -38 -40 -21 -59 19 -20 95
-51 128 -51 19 0 24 -15 8 -25 -5 -3 -10 -11 -10 -17 0 -16 72 -78 90 -78 16
0 330 339 330 356 0 10 -86 84 -97 84 -6 0 -51 -43 -100 -96z"/>
<path d="M6748 3316 c-74 -37 -108 -66 -139 -114 -42 -67 -39 -87 18 -106 25
-9 47 -15 47 -13 10 30 46 83 71 101 52 40 104 51 149 32 22 -9 36 -21 34 -28
-3 -7 -62 -52 -132 -100 -135 -92 -166 -116 -166 -130 0 -5 21 -31 46 -58 53
-57 88 -70 183 -70 84 0 135 25 200 96 57 62 65 90 59 192 -3 60 -8 74 -41
119 -57 77 -108 103 -204 103 -62 0 -87 -5 -125 -24z m252 -256 c0 -66 -64
-130 -132 -130 -25 0 -88 34 -88 49 0 5 25 24 55 42 30 18 55 37 55 41 0 4 6
8 13 8 7 0 28 11 47 25 39 29 50 21 50 -35z"/>
<path d="M3685 3300 c-4 -6 -4 -29 0 -50 6 -35 10 -40 35 -40 88 0 204 -106
192 -177 -5 -32 -36 -29 -81 6 -20 16 -65 46 -101 67 -36 21 -83 50 -104 66
-21 15 -45 28 -53 28 -8 0 -25 -24 -38 -52 -33 -71 -34 -162 -3 -226 41 -80
135 -141 233 -149 51 -5 70 -1 117 20 91 42 158 143 158 238 0 135 -152 279
-294 279 -30 0 -58 -5 -61 -10z m6 -263 c19 -12 62 -40 97 -61 34 -20 62 -41
62 -46 0 -19 -47 -40 -91 -40 -44 0 -88 22 -111 55 -14 19 -26 74 -21 95 7 26
22 25 64 -3z"/>
<path d="M4570 3114 c-6 -14 -10 -32 -10 -40 0 -8 -6 -25 -14 -37 -8 -12 -17
-38 -21 -57 -12 -57 -24 -64 -49 -28 -11 17 -41 43 -66 57 -37 21 -59 25 -126
25 -65 1 -86 -3 -101 -16 -11 -10 -24 -18 -29 -18 -25 0 -85 -85 -109 -152
-61 -176 96 -354 282 -319 41 8 43 8 37 -15 -5 -20 -1 -26 27 -38 79 -32 86
-30 109 18 11 25 20 54 20 65 0 11 4 22 9 25 5 3 23 48 40 98 17 51 47 138 67
193 36 99 64 190 64 210 0 5 -27 20 -60 32 l-61 22 -9 -25z m-165 -237 c44
-44 52 -88 28 -152 -33 -88 -123 -121 -199 -74 -44 27 -54 47 -54 110 0 94 51
149 138 149 48 0 58 -4 87 -33z"/>
<path d="M6243 3045 l-53 -25 0 -266 0 -266 33 7 c17 4 44 14 60 21 l27 15 0
153 c0 84 3 168 6 186 l7 32 131 -131 131 -131 60 25 c33 13 61 28 62 32 2 5
-79 90 -180 191 -139 138 -189 182 -208 182 -13 -1 -48 -12 -76 -25z"/>
<path d="M5740 2900 c-58 -6 -124 -35 -151 -66 -32 -37 -30 -51 12 -80 l39
-27 23 21 c31 29 89 52 131 52 47 0 101 -27 115 -57 13 -29 1 -35 -104 -53
-197 -33 -241 -42 -249 -50 -15 -15 10 -98 42 -145 15 -22 50 -52 77 -67 42
-23 62 -28 125 -28 118 0 201 48 250 145 30 60 28 170 -5 235 -26 50 -89 107
-129 115 -45 8 -124 11 -176 5z m200 -292 c0 -23 -10 -40 -40 -70 -35 -32 -47
-38 -86 -38 -52 0 -89 21 -110 61 -8 16 -13 29 -12 29 2 1 55 11 118 25 63 13
118 24 123 24 4 1 7 -13 7 -31z"/>
<path d="M4860 2876 c-128 -36 -199 -124 -200 -249 -1 -225 273 -343 466 -200
51 38 77 103 78 199 0 74 -3 87 -30 130 -38 63 -93 99 -176 119 -77 17 -78 17
-138 1z m161 -144 c54 -50 63 -107 29 -177 -47 -98 -181 -100 -230 -4 -24 46
-25 71 -5 130 18 54 69 88 128 89 30 0 46 -8 78 -38z"/>
<path d="M5305 2850 c-6 -10 13 -653 21 -678 3 -9 22 -12 70 -10 l67 3 -2 145
c0 80 -6 215 -11 300 -6 85 -11 175 -13 200 l-2 45 -62 3 c-35 2 -64 -2 -68
-8z"/>
</g>
</svg>
